<svg width="48" height="48" viewBox="0 0 48 48" fill="none" xmlns="http://www.w3.org/2000/svg">
<rect width="48" height="48" rx="8" fill="#F3F7FF"/>
<path d="M33.6462 15.3154L33.4697 15.2942C32.456 14.816 31.3478 14.5727 30.2361 14.4606L20.7044 14.4647L19.2036 23.9894L19.1399 24.0165C18.7331 27.2235 18.2413 30.4257 17.6361 33.6014L17.6155 33.6605H11.038L11.0014 33.6014C11.0038 33.563 10.9973 33.5217 11.0014 33.4833C11.0185 33.3251 11.11 33.1067 11.1142 32.9331L14.9824 8.00177L26.3201 8C30.3152 8.25682 33.6674 11.1544 33.6462 15.3154Z" fill="#002991"/>
<path d="M33.6461 15.3154C36.5083 16.7808 38.038 19.8956 37.4063 23.0731C36.5484 27.3876 32.8396 30.2628 28.5021 30.4169C27.2452 30.4617 25.9741 30.3773 24.716 30.4198L23.1786 40.0006H16.574C16.5905 39.458 16.6808 38.9237 16.7747 38.39C17.025 36.7889 17.2895 35.1824 17.6355 33.6008C18.1485 30.4086 18.638 27.2099 19.1392 24.0159L19.1599 23.9569L24.6599 23.9581C29.2094 23.899 33.4395 20.1011 33.5841 15.4772L33.6455 15.316L33.6461 15.3154Z" fill="#60CDFF"/>
<path d="M33.646 15.3153C33.6212 20.0407 29.2281 24.0211 24.5806 24.0164L19.1396 24.0152L20.6475 14.4049L30.2406 14.4014C31.3813 14.5124 32.627 14.7934 33.6466 15.3153H33.646Z" fill="#008CFF"/>
</svg>
