<svg width="87" height="42" viewBox="0 0 87 42" fill="none" xmlns="http://www.w3.org/2000/svg">
<path fill-rule="evenodd" clip-rule="evenodd" d="M65.974 9.98303L43.5054 0L21.0358 9.98303H7.02129V14.0546H0V41.4286H87V14.0546H79.9836V9.98303H65.974ZM21.4548 11.9024L43.5231 2.08629L65.5968 11.9024H78.1342V15.9737H85.1511V39.5115H1.84873V15.9737H8.87179V11.9024H21.4548ZM72.6533 20.7738C72.3929 20.7529 72.1357 20.7424 71.8879 20.7424C69.8049 20.7424 68.2276 21.4817 67.1987 22.9409C66.3363 24.1384 66.2407 26.0339 66.9751 27.4492C67.9158 29.046 69.4262 29.714 70.8876 30.3604L70.8955 30.3639C71.4984 30.629 72.1223 30.9057 72.7062 31.2452C73.3737 31.6367 73.7096 32.2295 73.5704 32.7555C73.4266 33.3019 72.7863 33.6685 71.9783 33.6685C71.8683 33.6685 71.7562 33.6616 71.6079 33.6433C70.2105 33.4529 67.518 32.5058 66.9701 32.3088L66.7715 32.236V35.8097L66.8222 35.826C66.8896 35.8477 69.9189 36.8226 72.6097 36.8226C74.0886 36.8226 75.2045 36.5316 75.9256 35.9586C75.942 35.9468 77.5969 34.6466 77.6702 32.4364C77.6898 31.8247 77.5483 31.1997 77.2231 30.5277L77.1503 30.3839C76.4998 29.1111 75.0455 28.0487 72.7035 27.1326L72.6213 27.1021C72.1544 26.9228 70.7457 26.3819 70.5892 25.5087C70.5461 25.2634 70.6486 24.8766 70.9277 24.6436C71.2245 24.3506 71.6757 24.2004 72.2733 24.2004C73.2272 24.2004 74.3139 24.5812 74.8766 24.8079C76.0605 25.2873 77.1095 25.7211 77.1095 25.7211L77.2129 25.7642V22.5064L77.1784 22.4861C77.1558 22.4709 74.9165 21.0913 72.6533 20.7738ZM13.9023 32.5497V17.0153H9.98361V36.25H19.9672V32.5497H13.9023ZM63.4672 24.3643V20.7143H54.1967V36.25H63.4672V32.6149H58.1113V30.2459H63.4672V26.747H58.1113V24.3643H63.4672ZM33.5164 22.6994C33.5164 21.6032 32.6735 20.7143 31.6342 20.7143H23.9886C22.9494 20.7143 22.1066 21.6032 22.1066 22.6994V34.2658C22.1066 35.3615 22.9494 36.25 23.9886 36.25H31.6342C32.6735 36.25 33.5164 35.3615 33.5164 34.2658V22.6994ZM39.6734 32.6188V20.7143H35.6557V34.2658C35.6557 35.3615 36.5107 36.25 37.5641 36.25H42.3116C43.1117 36.25 43.8569 35.6763 43.8569 34.8439C43.8569 35.6763 44.6023 36.25 45.4015 36.25H50.1496C51.203 36.25 52.0574 35.3615 52.0574 34.2658V20.7143H48.0406V32.6188H45.6193V20.7143H42.0931V32.6188H39.6734ZM26.071 24.3643H29.5515V32.6003H26.071V24.3643ZM67.131 21.4541L67.7459 17.0165L64.1829 17.0153L64.1803 21.4488L67.131 21.4541ZM80.9988 20.7143C82.6733 20.7143 84.0998 22.0285 84.0998 23.8146C84.0998 25.6116 82.6733 26.9286 80.9988 26.9286C79.312 26.9286 77.8855 25.6116 77.8855 23.8146C77.8855 22.0285 79.312 20.7143 80.9988 20.7143ZM78.502 23.8146C78.502 22.3412 79.5947 21.2323 80.9988 21.2323C82.3877 21.2323 83.4805 22.3412 83.4805 23.8146C83.4805 25.3125 82.3877 26.4077 80.9988 26.4077C79.5947 26.4077 78.502 25.3125 78.502 23.8146ZM81.1626 22.0285C81.9962 22.0285 82.4085 22.3412 82.4085 23.0481C82.4085 23.6889 82.0164 23.9698 81.4975 24.0364L82.4982 25.6116H81.9014L80.9674 24.058H80.3526V25.6116H79.818V22.0285H81.1626ZM80.3526 22.6684V23.4492H81.3309C81.5396 23.4492 81.9014 23.4492 81.9014 23.0481C81.9014 22.6469 81.5736 22.6684 81.4069 22.6684H80.3526Z" fill="white"/>
</svg>
