<svg width="48" height="48" viewBox="0 0 48 48" fill="none" xmlns="http://www.w3.org/2000/svg">
<rect width="48" height="48" rx="8" fill="#F3F7FF"/>
<path d="M28.8495 19.0002C26.5804 19.0002 24.543 20.1836 24.543 22.3552C24.543 24.8561 28.1419 25.0269 28.1419 26.2713C28.1419 26.7959 27.532 27.2717 26.5072 27.2717C25.0432 27.2717 23.9452 26.6129 23.9452 26.6129L23.4816 28.8089C23.4816 28.8089 24.7382 29.3701 26.4218 29.3701C28.9105 29.3701 30.8625 28.1379 30.8625 25.9175C30.8625 23.2824 27.2514 23.1116 27.2514 21.9526C27.2514 21.5378 27.7516 21.0864 28.7763 21.0864C29.9353 21.0864 30.8869 21.5622 30.8869 21.5622L31.3505 19.4394C31.3383 19.4394 30.3013 19.0002 28.8495 19.0002ZM8.06112 19.1588L8.00012 19.476C8.00012 19.476 8.9517 19.6468 9.81789 20.0006C10.9281 20.4032 11.0013 20.635 11.1965 21.3548L13.2338 29.1993H15.9666L20.1511 19.1588H17.4305L14.7344 25.9907L13.6364 20.1958C13.5388 19.537 13.0264 19.1588 12.392 19.1588H8.06112ZM21.2491 19.1588L19.1141 29.1993H21.7127L23.8354 19.1588H21.2491ZM35.718 19.1588C35.0958 19.1588 34.7664 19.4882 34.5224 20.0738L30.7161 29.1993H33.4366L33.9612 27.6743H37.2796L37.5968 29.1993H40.0001L37.914 19.1588H35.718ZM36.0718 21.8794L36.877 25.6491H34.7176L36.0718 21.8794Z" fill="#1434CB"/>
</svg>
