<svg width="48" height="48" viewBox="0 0 48 48" fill="none" xmlns="http://www.w3.org/2000/svg">
<rect width="48" height="48" rx="8" fill="#F3F7FF"/>
<path d="M13.8463 18.6938C13.4713 19.1375 12.8713 19.4875 12.2713 19.4375C12.1963 18.8375 12.4901 18.2 12.8338 17.8062C13.2088 17.35 13.8651 17.025 14.3963 17C14.4588 17.625 14.2151 18.2375 13.8463 18.6938ZM14.3901 19.5563C13.5213 19.5063 12.7776 20.05 12.3651 20.05C11.9463 20.05 11.3151 19.5812 10.6276 19.5938C9.73383 19.6063 8.90258 20.1125 8.44633 20.9188C7.50883 22.5312 8.20258 24.9187 9.10883 26.2312C9.55258 26.8812 10.0838 27.5938 10.7838 27.5688C11.4463 27.5438 11.7088 27.1375 12.5088 27.1375C13.3151 27.1375 13.5463 27.5687 14.2463 27.5562C14.9713 27.5437 15.4276 26.9063 15.8713 26.2563C16.3776 25.5188 16.5838 24.8 16.5963 24.7625C16.5838 24.75 15.1963 24.2188 15.1838 22.6188C15.1713 21.2813 16.2776 20.6438 16.3276 20.6063C15.7026 19.6813 14.7276 19.5813 14.3901 19.5563ZM19.4088 17.7437V27.4875H20.9213V24.1562H23.0151C24.9276 24.1562 26.2713 22.8437 26.2713 20.9437C26.2713 19.0437 24.9526 17.7437 23.0651 17.7437H19.4088ZM20.9213 19.0187H22.6651C23.9776 19.0187 24.7276 19.7188 24.7276 20.95C24.7276 22.1813 23.9776 22.8875 22.6588 22.8875H20.9213V19.0187ZM29.0338 27.5625C29.9838 27.5625 30.8651 27.0813 31.2651 26.3188H31.2963V27.4875H32.6963V22.6375C32.6963 21.2312 31.5713 20.325 29.8401 20.325C28.2338 20.325 27.0463 21.2437 27.0026 22.5062H28.3651C28.4776 21.9062 29.0338 21.5125 29.7963 21.5125C30.7213 21.5125 31.2401 21.9438 31.2401 22.7375V23.275L29.3526 23.3875C27.5963 23.4937 26.6463 24.2125 26.6463 25.4625C26.6463 26.725 27.6276 27.5625 29.0338 27.5625ZM29.4401 26.4062C28.6338 26.4062 28.1213 26.0188 28.1213 25.425C28.1213 24.8125 28.6151 24.4563 29.5588 24.4L31.2401 24.2937V24.8438C31.2401 25.7563 30.4651 26.4062 29.4401 26.4062ZM34.5651 30.1375C36.0401 30.1375 36.7338 29.575 37.3401 27.8687L39.9963 20.4188H38.4588L36.6776 26.175H36.6463L34.8651 20.4188H33.2838L35.8463 27.5125L35.7088 27.9438C35.4776 28.675 35.1026 28.9563 34.4338 28.9563C34.3151 28.9563 34.0838 28.9437 33.9901 28.9312V30.1C34.0776 30.125 34.4526 30.1375 34.5651 30.1375Z" fill="black"/>
</svg>
